<?xml version="1.0" encoding="utf-8" standalone="no"?>
<!DOCTYPE svg PUBLIC "-//W3C//DTD SVG 1.1//EN"
  "http://www.w3.org/Graphics/SVG/1.1/DTD/svg11.dtd">
<!-- Created with matplotlib (https://matplotlib.org/) -->
<svg height="216pt" version="1.1" viewBox="0 0 216 216" width="216pt" xmlns="http://www.w3.org/2000/svg" xmlns:xlink="http://www.w3.org/1999/xlink">
 <defs>
  <style type="text/css">
*{stroke-linecap:butt;stroke-linejoin:round;white-space:pre;}
  </style>
 </defs>
 <g id="figure_1">
  <g id="patch_1">
   <path d="M 0 216 
L 216 216 
L 216 0 
L 0 0 
z
" style="fill:#ffffff;"/>
  </g>
  <g id="axes_1">
   <g id="patch_2">
    <path d="M 27 192.24 
L 194.4 192.24 
L 194.4 25.92 
L 27 25.92 
z
" style="fill:#ffffff;"/>
   </g>
   <g id="matplotlib.axis_1">
    <g id="xtick_1">
     <g id="line2d_1">
      <defs>
       <path d="M 0 0 
L 0 3.5 
" id="m0aa8fc2516" style="stroke:#000000;stroke-width:0.8;"/>
      </defs>
      <g>
       <use style="stroke:#000000;stroke-width:0.8;" x="34.609091" xlink:href="#m0aa8fc2516" y="192.24"/>
      </g>
     </g>
     <g id="text_1">
      <!-- 0 -->
      <defs>
       <path d="M 31.78125 66.40625 
Q 24.171875 66.40625 20.328125 58.90625 
Q 16.5 51.421875 16.5 36.375 
Q 16.5 21.390625 20.328125 13.890625 
Q 24.171875 6.390625 31.78125 6.390625 
Q 39.453125 6.390625 43.28125 13.890625 
Q 47.125 21.390625 47.125 36.375 
Q 47.125 51.421875 43.28125 58.90625 
Q 39.453125 66.40625 31.78125 66.40625 
z
M 31.78125 74.21875 
Q 44.046875 74.21875 50.515625 64.515625 
Q 56.984375 54.828125 56.984375 36.375 
Q 56.984375 17.96875 50.515625 8.265625 
Q 44.046875 -1.421875 31.78125 -1.421875 
Q 19.53125 -1.421875 13.0625 8.265625 
Q 6.59375 17.96875 6.59375 36.375 
Q 6.59375 54.828125 13.0625 64.515625 
Q 19.53125 74.21875 31.78125 74.21875 
z
" id="DejaVuSans-48"/>
      </defs>
      <g transform="translate(31.427841 206.838437)scale(0.1 -0.1)">
       <use xlink:href="#DejaVuSans-48"/>
      </g>
     </g>
    </g>
    <g id="xtick_2">
     <g id="line2d_2">
      <g>
       <use style="stroke:#000000;stroke-width:0.8;" x="76.532457" xlink:href="#m0aa8fc2516" y="192.24"/>
      </g>
     </g>
     <g id="text_2">
      <!-- 100 -->
      <defs>
       <path d="M 12.40625 8.296875 
L 28.515625 8.296875 
L 28.515625 63.921875 
L 10.984375 60.40625 
L 10.984375 69.390625 
L 28.421875 72.90625 
L 38.28125 72.90625 
L 38.28125 8.296875 
L 54.390625 8.296875 
L 54.390625 0 
L 12.40625 0 
z
" id="DejaVuSans-49"/>
      </defs>
      <g transform="translate(66.988707 206.838437)scale(0.1 -0.1)">
       <use xlink:href="#DejaVuSans-49"/>
       <use x="63.623047" xlink:href="#DejaVuSans-48"/>
       <use x="127.246094" xlink:href="#DejaVuSans-48"/>
      </g>
     </g>
    </g>
    <g id="xtick_3">
     <g id="line2d_3">
      <g>
       <use style="stroke:#000000;stroke-width:0.8;" x="118.455823" xlink:href="#m0aa8fc2516" y="192.24"/>
      </g>
     </g>
     <g id="text_3">
      <!-- 200 -->
      <defs>
       <path d="M 19.1875 8.296875 
L 53.609375 8.296875 
L 53.609375 0 
L 7.328125 0 
L 7.328125 8.296875 
Q 12.9375 14.109375 22.625 23.890625 
Q 32.328125 33.6875 34.8125 36.53125 
Q 39.546875 41.84375 41.421875 45.53125 
Q 43.3125 49.21875 43.3125 52.78125 
Q 43.3125 58.59375 39.234375 62.25 
Q 35.15625 65.921875 28.609375 65.921875 
Q 23.96875 65.921875 18.8125 64.3125 
Q 13.671875 62.703125 7.8125 59.421875 
L 7.8125 69.390625 
Q 13.765625 71.78125 18.9375 73 
Q 24.125 74.21875 28.421875 74.21875 
Q 39.75 74.21875 46.484375 68.546875 
Q 53.21875 62.890625 53.21875 53.421875 
Q 53.21875 48.921875 51.53125 44.890625 
Q 49.859375 40.875 45.40625 35.40625 
Q 44.1875 33.984375 37.640625 27.21875 
Q 31.109375 20.453125 19.1875 8.296875 
z
" id="DejaVuSans-50"/>
      </defs>
      <g transform="translate(108.912073 206.838437)scale(0.1 -0.1)">
       <use xlink:href="#DejaVuSans-50"/>
       <use x="63.623047" xlink:href="#DejaVuSans-48"/>
       <use x="127.246094" xlink:href="#DejaVuSans-48"/>
      </g>
     </g>
    </g>
    <g id="xtick_4">
     <g id="line2d_4">
      <g>
       <use style="stroke:#000000;stroke-width:0.8;" x="160.379189" xlink:href="#m0aa8fc2516" y="192.24"/>
      </g>
     </g>
     <g id="text_4">
      <!-- 300 -->
      <defs>
       <path d="M 40.578125 39.3125 
Q 47.65625 37.796875 51.625 33 
Q 55.609375 28.21875 55.609375 21.1875 
Q 55.609375 10.40625 48.1875 4.484375 
Q 40.765625 -1.421875 27.09375 -1.421875 
Q 22.515625 -1.421875 17.65625 -0.515625 
Q 12.796875 0.390625 7.625 2.203125 
L 7.625 11.71875 
Q 11.71875 9.328125 16.59375 8.109375 
Q 21.484375 6.890625 26.8125 6.890625 
Q 36.078125 6.890625 40.9375 10.546875 
Q 45.796875 14.203125 45.796875 21.1875 
Q 45.796875 27.640625 41.28125 31.265625 
Q 36.765625 34.90625 28.71875 34.90625 
L 20.21875 34.90625 
L 20.21875 43.015625 
L 29.109375 43.015625 
Q 36.375 43.015625 40.234375 45.921875 
Q 44.09375 48.828125 44.09375 54.296875 
Q 44.09375 59.90625 40.109375 62.90625 
Q 36.140625 65.921875 28.71875 65.921875 
Q 24.65625 65.921875 20.015625 65.03125 
Q 15.375 64.15625 9.8125 62.3125 
L 9.8125 71.09375 
Q 15.4375 72.65625 20.34375 73.4375 
Q 25.25 74.21875 29.59375 74.21875 
Q 40.828125 74.21875 47.359375 69.109375 
Q 53.90625 64.015625 53.90625 55.328125 
Q 53.90625 49.265625 50.4375 45.09375 
Q 46.96875 40.921875 40.578125 39.3125 
z
" id="DejaVuSans-51"/>
      </defs>
      <g transform="translate(150.835439 206.838437)scale(0.1 -0.1)">
       <use xlink:href="#DejaVuSans-51"/>
       <use x="63.623047" xlink:href="#DejaVuSans-48"/>
       <use x="127.246094" xlink:href="#DejaVuSans-48"/>
      </g>
     </g>
    </g>
   </g>
   <g id="matplotlib.axis_2">
    <g id="ytick_1">
     <g id="line2d_5">
      <defs>
       <path d="M 0 0 
L -3.5 0 
" id="mfd59a3e4e1" style="stroke:#000000;stroke-width:0.8;"/>
      </defs>
      <g>
       <use style="stroke:#000000;stroke-width:0.8;" x="27" xlink:href="#mfd59a3e4e1" y="184.68"/>
      </g>
     </g>
     <g id="text_5">
      <!-- 0.0 -->
      <defs>
       <path d="M 10.6875 12.40625 
L 21 12.40625 
L 21 0 
L 10.6875 0 
z
" id="DejaVuSans-46"/>
      </defs>
      <g transform="translate(4.096875 188.479219)scale(0.1 -0.1)">
       <use xlink:href="#DejaVuSans-48"/>
       <use x="63.623047" xlink:href="#DejaVuSans-46"/>
       <use x="95.410156" xlink:href="#DejaVuSans-48"/>
      </g>
     </g>
    </g>
    <g id="ytick_2">
     <g id="line2d_6">
      <g>
       <use style="stroke:#000000;stroke-width:0.8;" x="27" xlink:href="#mfd59a3e4e1" y="154.44"/>
      </g>
     </g>
     <g id="text_6">
      <!-- 0.2 -->
      <g transform="translate(4.096875 158.239219)scale(0.1 -0.1)">
       <use xlink:href="#DejaVuSans-48"/>
       <use x="63.623047" xlink:href="#DejaVuSans-46"/>
       <use x="95.410156" xlink:href="#DejaVuSans-50"/>
      </g>
     </g>
    </g>
    <g id="ytick_3">
     <g id="line2d_7">
      <g>
       <use style="stroke:#000000;stroke-width:0.8;" x="27" xlink:href="#mfd59a3e4e1" y="124.2"/>
      </g>
     </g>
     <g id="text_7">
      <!-- 0.4 -->
      <defs>
       <path d="M 37.796875 64.3125 
L 12.890625 25.390625 
L 37.796875 25.390625 
z
M 35.203125 72.90625 
L 47.609375 72.90625 
L 47.609375 25.390625 
L 58.015625 25.390625 
L 58.015625 17.1875 
L 47.609375 17.1875 
L 47.609375 0 
L 37.796875 0 
L 37.796875 17.1875 
L 4.890625 17.1875 
L 4.890625 26.703125 
z
" id="DejaVuSans-52"/>
      </defs>
      <g transform="translate(4.096875 127.999219)scale(0.1 -0.1)">
       <use xlink:href="#DejaVuSans-48"/>
       <use x="63.623047" xlink:href="#DejaVuSans-46"/>
       <use x="95.410156" xlink:href="#DejaVuSans-52"/>
      </g>
     </g>
    </g>
    <g id="ytick_4">
     <g id="line2d_8">
      <g>
       <use style="stroke:#000000;stroke-width:0.8;" x="27" xlink:href="#mfd59a3e4e1" y="93.96"/>
      </g>
     </g>
     <g id="text_8">
      <!-- 0.6 -->
      <defs>
       <path d="M 33.015625 40.375 
Q 26.375 40.375 22.484375 35.828125 
Q 18.609375 31.296875 18.609375 23.390625 
Q 18.609375 15.53125 22.484375 10.953125 
Q 26.375 6.390625 33.015625 6.390625 
Q 39.65625 6.390625 43.53125 10.953125 
Q 47.40625 15.53125 47.40625 23.390625 
Q 47.40625 31.296875 43.53125 35.828125 
Q 39.65625 40.375 33.015625 40.375 
z
M 52.59375 71.296875 
L 52.59375 62.3125 
Q 48.875 64.0625 45.09375 64.984375 
Q 41.3125 65.921875 37.59375 65.921875 
Q 27.828125 65.921875 22.671875 59.328125 
Q 17.53125 52.734375 16.796875 39.40625 
Q 19.671875 43.65625 24.015625 45.921875 
Q 28.375 48.1875 33.59375 48.1875 
Q 44.578125 48.1875 50.953125 41.515625 
Q 57.328125 34.859375 57.328125 23.390625 
Q 57.328125 12.15625 50.6875 5.359375 
Q 44.046875 -1.421875 33.015625 -1.421875 
Q 20.359375 -1.421875 13.671875 8.265625 
Q 6.984375 17.96875 6.984375 36.375 
Q 6.984375 53.65625 15.1875 63.9375 
Q 23.390625 74.21875 37.203125 74.21875 
Q 40.921875 74.21875 44.703125 73.484375 
Q 48.484375 72.75 52.59375 71.296875 
z
" id="DejaVuSans-54"/>
      </defs>
      <g transform="translate(4.096875 97.759219)scale(0.1 -0.1)">
       <use xlink:href="#DejaVuSans-48"/>
       <use x="63.623047" xlink:href="#DejaVuSans-46"/>
       <use x="95.410156" xlink:href="#DejaVuSans-54"/>
      </g>
     </g>
    </g>
    <g id="ytick_5">
     <g id="line2d_9">
      <g>
       <use style="stroke:#000000;stroke-width:0.8;" x="27" xlink:href="#mfd59a3e4e1" y="63.72"/>
      </g>
     </g>
     <g id="text_9">
      <!-- 0.8 -->
      <defs>
       <path d="M 31.78125 34.625 
Q 24.75 34.625 20.71875 30.859375 
Q 16.703125 27.09375 16.703125 20.515625 
Q 16.703125 13.921875 20.71875 10.15625 
Q 24.75 6.390625 31.78125 6.390625 
Q 38.8125 6.390625 42.859375 10.171875 
Q 46.921875 13.96875 46.921875 20.515625 
Q 46.921875 27.09375 42.890625 30.859375 
Q 38.875 34.625 31.78125 34.625 
z
M 21.921875 38.8125 
Q 15.578125 40.375 12.03125 44.71875 
Q 8.5 49.078125 8.5 55.328125 
Q 8.5 64.0625 14.71875 69.140625 
Q 20.953125 74.21875 31.78125 74.21875 
Q 42.671875 74.21875 48.875 69.140625 
Q 55.078125 64.0625 55.078125 55.328125 
Q 55.078125 49.078125 51.53125 44.71875 
Q 48 40.375 41.703125 38.8125 
Q 48.828125 37.15625 52.796875 32.3125 
Q 56.78125 27.484375 56.78125 20.515625 
Q 56.78125 9.90625 50.3125 4.234375 
Q 43.84375 -1.421875 31.78125 -1.421875 
Q 19.734375 -1.421875 13.25 4.234375 
Q 6.78125 9.90625 6.78125 20.515625 
Q 6.78125 27.484375 10.78125 32.3125 
Q 14.796875 37.15625 21.921875 38.8125 
z
M 18.3125 54.390625 
Q 18.3125 48.734375 21.84375 45.5625 
Q 25.390625 42.390625 31.78125 42.390625 
Q 38.140625 42.390625 41.71875 45.5625 
Q 45.3125 48.734375 45.3125 54.390625 
Q 45.3125 60.0625 41.71875 63.234375 
Q 38.140625 66.40625 31.78125 66.40625 
Q 25.390625 66.40625 21.84375 63.234375 
Q 18.3125 60.0625 18.3125 54.390625 
z
" id="DejaVuSans-56"/>
      </defs>
      <g transform="translate(4.096875 67.519219)scale(0.1 -0.1)">
       <use xlink:href="#DejaVuSans-48"/>
       <use x="63.623047" xlink:href="#DejaVuSans-46"/>
       <use x="95.410156" xlink:href="#DejaVuSans-56"/>
      </g>
     </g>
    </g>
    <g id="ytick_6">
     <g id="line2d_10">
      <g>
       <use style="stroke:#000000;stroke-width:0.8;" x="27" xlink:href="#mfd59a3e4e1" y="33.48"/>
      </g>
     </g>
     <g id="text_10">
      <!-- 1.0 -->
      <g transform="translate(4.096875 37.279219)scale(0.1 -0.1)">
       <use xlink:href="#DejaVuSans-49"/>
       <use x="63.623047" xlink:href="#DejaVuSans-46"/>
       <use x="95.410156" xlink:href="#DejaVuSans-48"/>
      </g>
     </g>
    </g>
   </g>
   <g id="line2d_11">
    <path clip-path="url(#paf00714d3e)" d="M 34.609091 184.68 
L 40.478362 184.68 
L 40.897596 33.48 
L 41.316829 33.48 
L 41.736063 184.68 
L 46.347633 184.68 
L 46.766867 33.48 
L 47.605334 33.48 
L 48.024568 184.68 
L 53.474606 184.68 
L 53.893839 33.48 
L 54.313073 184.68 
L 57.666942 184.68 
L 58.086176 33.48 
L 58.505409 184.68 
L 66.051615 184.68 
L 66.470849 33.48 
L 66.890083 184.68 
L 81.144027 184.68 
L 81.563261 33.48 
L 81.982494 184.68 
L 82.820962 184.68 
L 83.240195 33.48 
L 83.659429 184.68 
L 84.078663 184.68 
L 84.497896 33.48 
L 84.91713 33.48 
L 85.336364 184.68 
L 86.174831 184.68 
L 86.594065 33.48 
L 87.013298 184.68 
L 92.463336 184.68 
L 92.882569 33.48 
L 93.301803 33.48 
L 93.721037 184.68 
L 94.14027 33.48 
L 94.559504 184.68 
L 94.978738 184.68 
L 95.397971 33.48 
L 100.009542 33.48 
L 100.428775 184.68 
L 100.848009 33.48 
L 101.686476 33.48 
L 102.10571 184.68 
L 102.524944 33.48 
L 102.944177 184.68 
L 103.782645 184.68 
L 104.201878 33.48 
L 106.298047 33.48 
L 106.71728 184.68 
L 108.394215 184.68 
L 108.813449 33.48 
L 115.101953 33.48 
L 115.521187 184.68 
L 115.940421 184.68 
L 116.359654 33.48 
L 117.198122 33.48 
L 117.617355 184.68 
L 118.036589 33.48 
L 125.163561 33.48 
L 125.582795 184.68 
L 126.840496 184.68 
L 127.25973 33.48 
L 127.678963 33.48 
L 128.098197 184.68 
L 128.517431 33.48 
L 128.936664 33.48 
L 129.355898 184.68 
L 129.775131 184.68 
L 130.194365 33.48 
L 131.032832 33.48 
L 131.452066 184.68 
L 131.8713 184.68 
L 132.290533 33.48 
L 133.129001 33.48 
L 133.548234 184.68 
L 133.967468 33.48 
L 134.386702 33.48 
L 134.805935 184.68 
L 135.225169 33.48 
L 135.644403 184.68 
L 136.063636 33.48 
L 136.48287 184.68 
L 136.902104 33.48 
L 137.321337 184.68 
L 138.159805 184.68 
L 138.579038 33.48 
L 142.771375 33.48 
L 143.190609 184.68 
L 144.44831 184.68 
L 144.867543 33.48 
L 145.286777 184.68 
L 146.963711 184.68 
L 147.382945 33.48 
L 147.802179 184.68 
L 149.05988 184.68 
L 149.479113 33.48 
L 149.898347 33.48 
L 150.317581 184.68 
L 154.509917 184.68 
L 154.929151 33.48 
L 155.348385 184.68 
L 155.767618 184.68 
L 156.186852 33.48 
L 156.606086 33.48 
L 157.025319 184.68 
L 159.121488 184.68 
L 159.540721 33.48 
L 160.379189 33.48 
L 160.798422 184.68 
L 162.894591 184.68 
L 163.313824 33.48 
L 163.733058 184.68 
L 166.24846 184.68 
L 166.667693 33.48 
L 167.086927 184.68 
L 172.956198 184.68 
L 173.375432 33.48 
L 173.794666 184.68 
L 180.083171 184.68 
L 180.502404 33.48 
L 180.921638 33.48 
L 181.340872 184.68 
L 181.760105 184.68 
L 182.179339 33.48 
L 182.598573 184.68 
L 184.275507 184.68 
L 184.694741 33.48 
L 185.113974 33.48 
L 185.533208 184.68 
L 186.790909 184.68 
L 186.790909 184.68 
" style="fill:none;stroke:#ffa500;stroke-linecap:square;stroke-opacity:0.8;stroke-width:1.5;"/>
   </g>
   <g id="line2d_12">
    <path clip-path="url(#paf00714d3e)" d="M 34.609091 33.48 
L 35.028325 184.68 
L 40.478362 184.68 
L 40.897596 33.48 
L 41.316829 33.48 
L 41.736063 184.68 
L 42.155297 33.48 
L 42.993764 33.48 
L 43.412998 184.68 
L 45.089932 184.68 
L 45.509166 33.48 
L 45.9284 184.68 
L 46.347633 33.48 
L 47.186101 33.48 
L 47.605334 184.68 
L 53.474606 184.68 
L 53.893839 33.48 
L 54.313073 184.68 
L 56.409241 184.68 
L 56.828475 33.48 
L 57.247708 184.68 
L 57.666942 184.68 
L 58.086176 33.48 
L 58.505409 184.68 
L 61.020811 184.68 
L 61.440045 33.48 
L 61.859279 33.48 
L 62.278512 184.68 
L 66.051615 184.68 
L 66.470849 33.48 
L 66.890083 33.48 
L 67.309316 184.68 
L 69.405485 184.68 
L 69.824718 33.48 
L 70.243952 184.68 
L 81.563261 184.68 
L 81.982494 33.48 
L 82.401728 184.68 
L 83.240195 184.68 
L 83.659429 33.48 
L 84.91713 33.48 
L 85.336364 184.68 
L 86.174831 184.68 
L 86.594065 33.48 
L 87.013298 33.48 
L 87.432532 184.68 
L 91.205635 184.68 
L 91.624869 33.48 
L 92.044102 184.68 
L 92.463336 184.68 
L 92.882569 33.48 
L 93.301803 33.48 
L 93.721037 184.68 
L 94.14027 33.48 
L 101.686476 33.48 
L 102.10571 184.68 
L 102.524944 33.48 
L 102.944177 184.68 
L 105.040346 184.68 
L 105.459579 33.48 
L 105.878813 33.48 
L 106.298047 184.68 
L 107.555748 184.68 
L 107.974981 33.48 
L 109.651916 33.48 
L 110.07115 184.68 
L 110.909617 184.68 
L 111.32885 33.48 
L 112.167318 33.48 
L 112.586551 184.68 
L 113.005785 33.48 
L 114.68272 33.48 
L 115.101953 184.68 
L 115.940421 184.68 
L 116.359654 33.48 
L 117.198122 33.48 
L 117.617355 184.68 
L 118.036589 184.68 
L 118.455823 33.48 
L 123.067393 33.48 
L 123.486627 184.68 
L 123.90586 33.48 
L 124.744328 33.48 
L 125.163561 184.68 
L 126.840496 184.68 
L 127.25973 33.48 
L 127.678963 184.68 
L 129.355898 184.68 
L 129.775131 33.48 
L 130.613599 33.48 
L 131.032832 184.68 
L 131.452066 184.68 
L 131.8713 33.48 
L 133.129001 33.48 
L 133.548234 184.68 
L 134.386702 184.68 
L 134.805935 33.48 
L 135.225169 33.48 
L 135.644403 184.68 
L 138.579038 184.68 
L 138.998272 33.48 
L 139.836739 33.48 
L 140.255973 184.68 
L 140.675207 33.48 
L 142.771375 33.48 
L 143.190609 184.68 
L 149.05988 184.68 
L 149.479113 33.48 
L 149.898347 33.48 
L 150.317581 184.68 
L 150.736814 184.68 
L 151.156048 33.48 
L 151.575282 184.68 
L 154.509917 184.68 
L 154.929151 33.48 
L 155.348385 184.68 
L 155.767618 184.68 
L 156.186852 33.48 
L 156.606086 33.48 
L 157.025319 184.68 
L 157.444553 33.48 
L 157.863787 184.68 
L 158.28302 184.68 
L 158.702254 33.48 
L 160.379189 33.48 
L 160.798422 184.68 
L 161.217656 184.68 
L 161.63689 33.48 
L 162.056123 184.68 
L 162.894591 184.68 
L 163.313824 33.48 
L 163.733058 33.48 
L 164.152292 184.68 
L 164.571525 33.48 
L 164.990759 184.68 
L 165.409992 33.48 
L 166.667693 33.48 
L 167.086927 184.68 
L 167.506161 184.68 
L 167.925394 33.48 
L 168.344628 184.68 
L 168.763862 33.48 
L 169.183095 33.48 
L 169.602329 184.68 
L 172.536965 184.68 
L 172.956198 33.48 
L 173.794666 33.48 
L 174.213899 184.68 
L 177.567769 184.68 
L 177.987002 33.48 
L 178.406236 33.48 
L 178.82547 184.68 
L 180.083171 184.68 
L 180.502404 33.48 
L 181.340872 33.48 
L 181.760105 184.68 
L 182.179339 33.48 
L 182.598573 184.68 
L 183.017806 184.68 
L 183.43704 33.48 
L 183.856273 184.68 
L 184.275507 33.48 
L 185.533208 33.48 
L 185.952442 184.68 
L 186.790909 184.68 
L 186.790909 184.68 
" style="fill:none;stroke:#00008b;stroke-linecap:square;stroke-opacity:0.5;stroke-width:1.5;"/>
   </g>
   <g id="patch_3">
    <path d="M 27 192.24 
L 27 25.92 
" style="fill:none;stroke:#000000;stroke-linecap:square;stroke-linejoin:miter;stroke-width:0.8;"/>
   </g>
   <g id="patch_4">
    <path d="M 194.4 192.24 
L 194.4 25.92 
" style="fill:none;stroke:#000000;stroke-linecap:square;stroke-linejoin:miter;stroke-width:0.8;"/>
   </g>
   <g id="patch_5">
    <path d="M 27 192.24 
L 194.4 192.24 
" style="fill:none;stroke:#000000;stroke-linecap:square;stroke-linejoin:miter;stroke-width:0.8;"/>
   </g>
   <g id="patch_6">
    <path d="M 27 25.92 
L 194.4 25.92 
" style="fill:none;stroke:#000000;stroke-linecap:square;stroke-linejoin:miter;stroke-width:0.8;"/>
   </g>
  </g>
 </g>
 <defs>
  <clipPath id="paf00714d3e">
   <rect height="166.32" width="167.4" x="27" y="25.92"/>
  </clipPath>
 </defs>
</svg>
